<?xml version="1.0" encoding="UTF-8"?>
<svg viewBox="0 0 300 200" xmlns="http://www.w3.org/2000/svg">
  <defs>
    <filter id="glow">
      <feGaussianBlur stdDeviation="5" result="coloredBlur"/>
      <feMerge>
        <feMergeNode in="coloredBlur"/>
        <feMergeNode in="SourceGraphic"/>
      </feMerge>
    </filter>
    <linearGradient id="blueGradient" x1="0%" y1="0%" x2="100%" y2="100%">
      <stop offset="0%" style="stop-color:#00D4FF;stop-opacity:1" />
      <stop offset="100%" style="stop-color:#0099CC;stop-opacity:1" />
    </linearGradient>
  </defs>
  <g filter="url(#glow)">
    <path d="M30 60 L30 130 L40 130 L40 80 L60 110 L80 80 L80 130 L90 130 L90 60 L75 60 L60 90 L45 60 Z"
          fill="url(#blueGradient)" stroke="none"/>
    <path d="M110 60 Q100 60 100 70 Q100 80 110 85 L130 85 Q135 85 135 90 Q135 95 130 95 L115 95 Q110 95 110 100 L110 105 Q110 110 120 110 L140 110 Q150 110 150 100 Q150 90 140 85 L120 85 Q115 85 115 80 Q115 75 120 75 L135 75 Q140 75 140 70 L140 65 Q140 60 130 60 Z"
          fill="url(#blueGradient)" stroke="none"/>
    <path d="M160 60 L160 70 L175 70 L175 130 L185 130 L185 70 L200 70 L200 60 Z"
          fill="url(#blueGradient)" stroke="none"/>
  </g>
  <g filter="url(#glow)">
    <path d="M40 140 L40 180 L48 180 L48 155 Q48 150 53 150 Q58 150 58 155 L58 180 L66 180 L66 155 Q66 150 71 150 Q76 150 76 155 L76 180 L84 180 L84 145 Q84 140 79 140 Q74 140 69 145 Q64 140 59 140 Q54 140 49 145 Q44 140 40 140 Z"
          fill="url(#blueGradient)" stroke="none"/>
    <path d="M100 140 Q95 140 95 145 Q95 150 100 152 L110 152 Q113 152 113 155 Q113 158 110 158 L105 158 Q100 158 100 163 L100 165 Q100 170 105 170 L115 170 Q120 170 120 165 Q120 160 115 158 L105 158 Q102 158 102 155 Q102 152 105 152 L110 152 Q115 152 115 147 L115 145 Q115 140 110 140 Z"
          fill="url(#blueGradient)" stroke="none"/>
    <path d="M135 135 L135 180 L143 180 L143 150 L155 150 L155 142 L143 142 L143 135 Z"
          fill="url(#blueGradient)" stroke="none"/>
  </g>
  <text x="150" y="195" font-family="Arial, sans-serif" font-size="12" text-anchor="middle" fill="url(#blueGradient)">
    make Success towards AI
  </text>
</svg>
